<?xml version="1.0" encoding="utf-8"?>
<!DOCTYPE svg PUBLIC "-//W3C//DTD SVG 1.0//EN" "http://www.w3.org/TR/2001/REC-SVG-20010904/DTD/svg10.dtd">
<svg version="1.0" xmlns="http://www.w3.org/2000/svg" width="95px" height="29px" viewBox="0 0 95 29" preserveAspectRatio="xMidYMid meet">
 <g fill="#ffffff">
  <path d="M0 14.5 l0 -14.5 47.5 0 47.5 0 0 14.5 0 14.5 -47.5 0 -47.5 0 0 -14.5z m8.6 4.5 c1.3 0 2.4 -0.4 2.4 -1 0 -0.5 -1.1 -1 -2.5 -1 -2.3 0 -2.4 -0.3 -2.8 -6.7 -0.2 -3.8 -0.3 -1.6 -0.3 4.7 -0.1 6.3 0.1 9.8 0.3 7.8 0.4 -3.3 0.8 -3.8 2.9 -3.8z m28.4 -0.7 c0 -4.2 -0.3 -7.4 -0.6 -7 -0.4 0.3 -0.6 3.3 -0.6 6.7 0.1 7.8 0.1 8 0.7 8 0.3 0 0.5 -3.4 0.5 -7.7z m7.7 -9 c-0.2 -3.2 -0.3 -0.6 -0.3 5.7 0 6.3 0.1 8.9 0.3 5.8 0.2 -3.2 0.2 -8.4 0 -11.5z m8.8 6.3 c0 -5.7 -0.3 -10.8 -0.7 -11.2 -0.5 -0.4 -0.8 4.3 -0.8 10.4 0 6.2 0.3 11.2 0.8 11.2 0.4 0 0.7 -4.7 0.7 -10.4z"/>
 </g>
 <g fill="#f7f7f7">
  <path d="M28 27.1 c0 -3 1.1 -5.1 2.5 -5.1 1.7 0 2.8 -3.4 2 -6 -0.3 -1.1 -1.3 -2 -2.1 -2 -0.8 0 -1.4 -0.4 -1.4 -1 0 -0.5 1.6 -1 3.5 -1 l3.5 0 0 4.9 c0 6.6 -1 11.3 -2.4 10.8 -0.6 -0.2 -2.1 0 -3.3 0.4 -1.9 0.7 -2.3 0.5 -2.3 -1z"/>
  <path d="M64.3 28.3 c-2.5 -1 -1.2 -2.3 2.2 -2.3 1.9 0 3.5 -0.5 3.5 -1.1 0 -0.6 0.6 -1.7 1.4 -2.4 0.7 -0.8 1.6 -3.2 2 -5.4 0.6 -3.9 0.8 -4.1 4.1 -4.1 3.2 0 3.5 0.2 3.5 3 0 3.2 -0.9 3.7 -2.8 1.8 -0.9 -0.9 -1.2 -0.8 -1.2 0.8 0 1.3 1.1 2.4 3 3.1 1.7 0.6 3 1.8 3 2.7 0 0.9 0.8 1.6 2 1.6 1.1 0 2 0.7 2 1.5 0 1.8 -0.7 1.8 -4.9 0.4 -1.7 -0.6 -3.6 -2 -4.2 -3.2 -1.1 -1.9 -1.2 -1.9 -2.1 -0.3 -1.7 3 -8.3 5.2 -11.5 3.9z"/>
  <path d="M18 25.8 c0 -2 0.1 -2.1 2 -0.3 1.1 1 2 2 2 2.2 0 0.1 -0.9 0.3 -2 0.3 -1.4 0 -2 -0.7 -2 -2.2z"/>
  <path d="M21.5 26 c-1.8 -2 -1.7 -2 0.8 -2 2 0 2.7 0.5 2.7 2 0 1.1 -0.4 2 -0.8 2 -0.5 0 -1.7 -0.9 -2.7 -2z"/>
  <path d="M46 26 c0 -1.1 0.5 -2 1 -2 0.6 0 1 0.9 1 2 0 1.1 -0.4 2 -1 2 -0.5 0 -1 -0.9 -1 -2z"/>
  <path d="M49 26 c0 -1.3 0.7 -2 2 -2 1.5 0 2 -0.7 2 -2.5 0 -1.5 0.6 -2.5 1.4 -2.5 1.4 0 2.6 2.9 2.6 6.8 0 1.9 -0.5 2.2 -4 2.2 -3.3 0 -4 -0.3 -4 -2z"/>
  <path d="M89 25.5 c0 -1.6 0.6 -2.5 1.5 -2.5 0.8 0 1.5 -0.7 1.5 -1.5 0 -1.8 1.7 -2 2.3 -0.2 0.8 2.1 -2.3 6.6 -4.5 6.7 -0.5 0 -0.8 -1.1 -0.8 -2.5z"/>
  <path d="M7 23.5 c0 -3.3 0.2 -3.5 3.5 -3.5 3.4 0 3.5 0.1 3.5 3.8 l-0.1 3.7 -2.4 -2.8 -2.5 -2.8 0 2.5 c0 1.4 -0.4 2.6 -1 2.6 -0.5 0 -1 -1.6 -1 -3.5z"/>
  <path d="M58 23.1 c-1.4 -2.7 -1.3 -4.1 0.5 -4.1 1 0 1.5 1 1.5 3 0 3.5 -0.5 3.8 -2 1.1z"/>
  <path d="M61 18 c0 -6.8 0.1 -7 2.5 -7 1.8 0 2.5 -0.5 2.5 -2 0 -2.2 2 -2.6 5.1 -1 2.5 1.4 2.4 3 -0.1 3 -1.2 0 -3.3 1.1 -4.8 2.5 -2.6 2.5 -2.6 2.5 -0.4 2.5 1.5 0 2.2 0.6 2.2 2 0 1.4 -0.7 2 -2.2 2 l-2.3 0.1 2.3 1.8 c3 2.6 2.8 3.1 -1.3 3.1 l-3.5 0 0 -7z"/>
  <path d="M14 13.8 c0 -2.7 0.4 -3.8 1.5 -3.8 0.8 0 1.5 -0.4 1.5 -0.9 0 -0.5 0.9 -1.1 2 -1.4 3 -0.8 2.4 1.3 -1.5 5.8 l-3.4 4 -0.1 -3.7z"/>
  <path d="M19 14.9 c0 -2.7 5.3 -7.9 8 -7.9 2.6 0 6 1.7 6 3 0 0.6 -2.7 1 -6 1 l-6 0 0 3 c0 1.7 -0.4 3 -1 3 -0.5 0 -1 -0.9 -1 -2.1z"/>
  <path d="M53 11 c0 -5.3 -0.2 -6 -2 -6 -1.4 0 -2 -0.7 -2 -2.1 0 -1.7 0.5 -2 3.8 -1.7 3.6 0.3 3.7 0.4 4 4.8 0.5 6.2 -0.6 11 -2.3 11 -1.2 0 -1.5 -1.4 -1.5 -6z"/>
  <path d="M57 15.7 c0 -0.7 0.7 -2.2 1.5 -3.3 1.4 -1.8 1.4 -1.7 1.5 1.4 0 2.2 -0.5 3.2 -1.5 3.2 -0.8 0 -1.5 -0.6 -1.5 -1.3z"/>
  <path d="M90 11.8 c0 -3 0 -3.1 2 -1.3 1.1 1 2 2.4 2 3.2 0 0.7 -0.9 1.3 -2 1.3 -1.6 0 -2 -0.7 -2 -3.2z"/>
  <path d="M79 10 c0 -1.2 3.3 -3 5.4 -3 0.9 0 1.6 0.9 1.6 2 0 1.6 -0.7 2 -3.5 2 -1.9 0 -3.5 -0.4 -3.5 -1z"/>
  <path d="M46 3 c0 -1.1 0.5 -2 1 -2 0.6 0 1 0.9 1 2 0 1.1 -0.4 2 -1 2 -0.5 0 -1 -0.9 -1 -2z"/>
 </g>
 <g fill="#efefef">
  <path d="M25 28.3 c-0.8 -0.3 -2.3 -1.3 -3.3 -2.1 -1.5 -1.3 -1.7 -1.3 -1.4 -0.1 0.2 0.8 0.2 1.1 0 0.7 -0.3 -0.5 -1.8 -0.8 -3.4 -0.8 -2.7 0 -2.9 -0.3 -2.9 -3.7 l0.1 -3.8 3 3.5 2.9 3.5 -0.6 -3.3 c-0.4 -2.1 -0.3 -3.2 0.5 -3.2 0.6 0 1.1 1.1 1.1 2.5 0 2.1 0.5 2.5 3 2.5 1.7 0 3 0.5 3 1 0 0.6 0.5 1 1 1 0.6 0 1 -0.7 1 -1.5 0 -1 1.1 -1.5 3.5 -1.5 3.1 0 3.5 0.3 3.5 2.5 0 2 -0.5 2.4 -2.7 2.3 -1.6 0 -3.7 0.2 -4.8 0.5 -1.1 0.3 -2.7 0.3 -3.5 0z"/>
  <path d="M64.3 28.3 c-4.9 -0.9 -9.8 -10.3 -5.4 -10.3 2.2 0 3.1 -1.9 3.1 -6.5 0 -2.7 0.5 -3.4 2.5 -3.9 3.3 -0.8 7.5 0.3 7.5 2 0 0.8 -0.7 1.4 -1.5 1.4 -0.8 0 -1.5 0.4 -1.5 0.9 0 0.5 -1.1 1.2 -2.5 1.5 -4.7 1.2 -2.5 2.6 4.1 2.6 6.2 0 6.5 0.1 6.2 2.3 -0.3 1.9 0.2 2.2 3.5 2.5 2 0.2 3.7 0.7 3.7 1.3 0 0.5 0.9 0.9 2 0.9 3.5 0 2.1 -1.6 -2.7 -3.1 -5.2 -1.6 -7 -3.9 -2.9 -3.9 1.4 0 2.6 -0.4 2.6 -1 0 -0.6 1 -0.6 2.8 0.1 1.5 0.5 3.3 1.2 4.1 1.5 1.1 0.3 1.2 0.7 0.3 1.6 -0.7 0.7 -1.2 2.2 -1.2 3.5 0 1.6 -0.7 2.4 -2.5 2.9 -3.3 0.8 -9.5 -0.4 -9.6 -1.9 0 -0.7 -0.5 -0.3 -1 0.8 -0.6 1.2 -1.9 2.6 -3 3.3 -1.7 1.1 -1.9 0.9 -1.9 -1.3 0 -1.6 -0.6 -2.5 -1.6 -2.5 -1.4 0 -1.4 -0.3 -0.4 -1.5 1.1 -1.3 0.8 -1.5 -1.9 -1.5 -2.9 0 -4.6 1.9 -1.8 2.1 0.6 0.1 -0.1 0.5 -1.8 0.9 l-3 0.8 2.8 0.1 c1.5 0 2.7 0.6 2.7 1.1 0 0.6 0.9 1 2 1 2.4 0 2.7 1.5 0.4 2.4 -0.9 0.3 -1.6 0.5 -1.7 0.5 -0.1 -0.1 -1.2 -0.4 -2.4 -0.6z"/>
  <path d="M84.3 28.3 c-2.5 -1 -1.2 -2.3 2.2 -2.3 3.6 0 4.7 1.3 1.9 2.4 -1.8 0.7 -2.3 0.7 -4.1 -0.1z"/>
  <path d="M46 14.5 c0 -8.3 0.4 -13.5 1 -13.5 0.6 0 1 5.2 1 13.5 0 8.3 -0.4 13.5 -1 13.5 -0.6 0 -1 -5.2 -1 -13.5z"/>
  <path d="M49.4 26.7 c-0.2 -0.7 -0.3 -6.7 -0.2 -13.2 0.3 -10.5 0.5 -12 2.1 -12.3 1.5 -0.3 1.7 0.8 1.7 13.2 0 11.5 -0.2 13.6 -1.5 13.6 -0.9 0 -1.8 -0.6 -2.1 -1.3z"/>
  <path d="M54 21.5 c0 -1.9 0.5 -3.5 1 -3.5 0.6 0 1 1.6 1 3.5 0 1.9 -0.4 3.5 -1 3.5 -0.5 0 -1 -1.6 -1 -3.5z"/>
  <path d="M87 14 c0 -0.5 -0.9 -1 -2.1 -1 -1.1 0 -1.7 -0.4 -1.4 -1 0.3 -0.5 -0.3 -1 -1.4 -1 -3 0 -2.6 -2.7 0.4 -3.4 3.7 -0.9 7.2 0.3 7.9 2.7 1 3.7 0.7 4.7 -1.4 4.7 -1.1 0 -2 -0.4 -2 -1z"/>
  <path d="M11.6 10.5 c2.1 -3.2 4.4 -3.2 4.4 0 0 2.1 -0.5 2.5 -3 2.5 -3 0 -3 0 -1.4 -2.5z"/>
  <path d="M25.8 11.3 c-1.6 -0.2 -2.8 -1 -2.8 -1.8 0 -1.7 4.3 -2.7 7.2 -1.6 1.3 0.4 2.9 0.6 3.6 0.4 0.7 -0.3 1.2 0.4 1.2 1.6 0 2.2 -2 2.5 -9.2 1.4z"/>
  <path d="M5 3 c0 -1.3 0.7 -2 2 -2 1.3 0 2 0.7 2 2 0 1.3 -0.7 2 -2 2 -1.3 0 -2 -0.7 -2 -2z"/>
 </g>
 <g fill="#e6e6e6">
  <path d="M79.5 26 c-1.8 -2 -1.7 -2 1.8 -2 3 0 3.7 0.4 3.7 2 0 1.3 -0.7 2 -1.8 2 -1.1 0 -2.7 -0.9 -3.7 -2z"/>
  <path d="M62 21.2 l0 -5.1 5.6 -0.3 5.6 -0.3 -2 -2.3 c-1.7 -1.9 -2.6 -2.2 -6.1 -1.6 -3.7 0.6 -4.1 0.9 -4.1 3.5 0 2.2 -0.5 2.9 -2 2.9 -4.7 0 0.3 -9.3 5.6 -10.3 3.7 -0.7 9.1 1 10.7 3.4 1.3 1.8 1.5 1.8 2.1 0.3 0.3 -0.9 1.2 -1.4 2.1 -1 0.9 0.3 1.5 0 1.5 -0.8 0 -0.8 0.9 -1.6 2 -1.9 2.5 -0.6 6 0.2 6 1.5 0 1.5 -2.7 3.8 -4.7 3.9 -1.6 0 -1.5 0.2 0.5 1.6 2.7 1.9 2.8 3.3 0.2 3.3 -1.1 0 -2 0.4 -2 1 0 1.3 -3.2 0.1 -4.7 -1.8 -1.2 -1.4 -1.3 -1.4 -1.3 0.4 0 1.6 -0.2 1.7 -1 0.4 -0.8 -1.3 -1.1 -1.3 -1.9 -0.1 -0.5 0.8 -2.8 1.4 -5.5 1.5 -2.7 0 -4.6 0.6 -4.6 1.2 0 2 3.2 2.5 5 0.9 2.3 -2.1 5 -1.9 5 0.4 0 2.6 -0.9 3.1 -7 3.8 l-5 0.6 0 -5.1z"/>
  <path d="M77.8 21.3 c1.2 -0.2 3 -0.2 4 0 0.9 0.3 -0.1 0.5 -2.3 0.4 -2.2 0 -3 -0.2 -1.7 -0.4z"/>
  <path d="M13 14.8 c0 -3.1 0.4 -3.8 2 -3.8 1.1 0 2 -0.7 2 -1.5 0 -0.8 0.9 -1.5 2 -1.5 2.8 0 2.5 0.9 -2 6 l-3.9 4.5 -0.1 -3.7z"/>
  <path d="M19.1 15.8 c-0.2 -4.1 3.6 -7.9 7.9 -7.8 1.9 0 4.7 0.1 6.3 0.1 2.2 0 2.7 0.4 2.7 2.4 0 2.2 -0.5 2.5 -3.4 2.5 -1.9 0 -3.6 -0.4 -3.8 -0.9 -0.2 -0.6 -2 -0.5 -4.5 0.2 -3.4 0.9 -4.3 1.6 -4.6 3.6 l-0.4 2.6 -0.2 -2.7z"/>
  <path d="M54 14.5 c0 -1.9 0.5 -3.5 1 -3.5 0.6 0 1 1.6 1 3.5 0 1.9 -0.4 3.5 -1 3.5 -0.5 0 -1 -1.6 -1 -3.5z"/>
  <path d="M41 3 c0 -1.6 0.7 -2 3.5 -2 2.8 0 3.5 0.4 3.5 2 0 1.6 -0.7 2 -3.5 2 -2.8 0 -3.5 -0.4 -3.5 -2z"/>
 </g>
 <g fill="#dedede">
  <path d="M5 23 l0 -5 3.5 0 c3.3 0 3.5 0.2 3.6 3.3 l0.2 3.2 0.6 -3.4 0.6 -3.4 3.8 4.6 c2 2.5 3.7 4.8 3.7 5.1 0 0.3 -1.7 0.6 -3.8 0.6 -3.2 0 -4.1 -0.5 -5.7 -3.2 l-2 -3.3 -0.3 3.3 c-0.2 2.4 -0.8 3.2 -2.3 3.2 -1.6 0 -1.9 -0.7 -1.9 -5z"/>
  <path d="M68 27 c0 -0.5 -0.7 -1 -1.5 -1 -2.8 0 -1.4 -2.5 2.4 -4.3 2.8 -1.3 5 -1.6 8 -1.1 3.8 0.6 4.1 0.9 4.1 3.8 l-0.1 3.1 -2.2 -2.5 -2.2 -2.6 -2.3 2.8 c-2.3 2.7 -6.2 3.8 -6.2 1.8z"/>
  <path d="M20.6 24.8 c-2.3 -3.2 -2.1 -6.9 0.2 -6.1 2.3 0.9 3.2 2.3 3.2 5.6 0 3.3 -1.3 3.5 -3.4 0.5z"/>
  <path d="M83 24.6 c0 -1.9 0.4 -2.2 2.5 -1.8 1.5 0.2 2.5 0 2.5 -0.7 0 -0.6 -0.4 -1.1 -1 -1.1 -0.5 0 -1 -1.1 -1 -2.5 0 -2.2 -0.5 -2.5 -6 -3.1 -5.6 -0.6 -6 -0.8 -6 -3.3 l0.1 -2.6 1.4 2.5 c1 1.7 1.4 2 1.5 0.9 0 -2.6 2.6 -4.1 7.7 -4.4 3.4 -0.2 5.3 0.2 6.7 1.3 1.8 1.6 1.7 1.7 -1 2.3 l-2.9 0.7 2.8 0.1 c1.5 0 2.7 0.6 2.7 1.1 0 1.3 -4.7 1.3 -5.5 0 -0.7 -1.2 -4.5 -1.3 -4.5 -0.2 0 0.5 2.1 1.5 4.7 2.3 4.5 1.4 7.1 3.9 3.9 3.9 -1.2 0 -1.6 1 -1.6 3.5 0 3.3 -0.2 3.5 -3.5 3.5 -3 0 -3.5 -0.3 -3.5 -2.4z"/>
  <path d="M68 18 c0 -0.5 2 -1 4.5 -1 2.5 0 4.5 0.5 4.5 1 0 0.6 -2 1 -4.5 1 -2.5 0 -4.5 -0.4 -4.5 -1z"/>
  <path d="M19.4 13.8 c0.6 -3.1 0.6 -3.1 -1.4 -1.3 -1.9 1.8 -2 1.7 -2 -0.3 0 -1.8 0.6 -2.1 3.5 -2 3.3 0.1 3.5 0.3 3.5 3.5 0 2.7 -0.4 3.3 -2.1 3.3 -1.9 0 -2.1 -0.4 -1.5 -3.2z"/>
  <path d="M2 3 c0 -1.3 0.7 -2 2 -2 1.3 0 2 0.7 2 2 0 1.3 -0.7 2 -2 2 -1.3 0 -2 -0.7 -2 -2z"/>
 </g>
 <g fill="#d6d6d6">
  <path d="M11.8 24.9 l-2.3 -3.1 -0.7 2.9 -0.7 2.8 0.2 -3 c0.2 -2.6 0.6 -3 3.5 -3.3 3.1 -0.3 3.2 -0.2 3.2 3.2 0 2 -0.2 3.6 -0.5 3.6 -0.2 0 -1.5 -1.4 -2.7 -3.1z"/>
  <path d="M87 26 c0 -1.6 0.7 -2 3.7 -2 3.5 0 3.6 0 1.8 2 -1 1.1 -2.6 2 -3.7 2 -1.1 0 -1.8 -0.7 -1.8 -2z"/>
  <path d="M55.3 23.5 c0 -2.2 0.2 -3 0.4 -1.7 0.2 1.2 0.2 3 0 4 -0.3 0.9 -0.5 -0.1 -0.4 -2.3z"/>
  <path d="M59.8 25.3 c-2.9 -3.4 -3 -5.3 -0.3 -5.3 2.2 0 2.5 0.4 2.5 3.5 0 4 -0.1 4.1 -2.2 1.8z"/>
  <path d="M90 20 c0 -3.2 0.9 -3.7 2.8 -1.8 1.9 1.9 1.5 4.8 -0.8 4.8 -1.6 0 -2 -0.7 -2 -3z"/>
  <path d="M22 18.6 c0 -2.2 -0.5 -3.6 -1.5 -3.8 -1.2 -0.2 -1.2 -0.7 -0.2 -2.7 1.7 -3.5 3.7 -3.8 3.7 -0.7 0 1.4 0.5 2.6 1 2.6 0.6 0 1 -0.9 1 -2 0 -1.6 0.7 -2 3.5 -2 3 0 3.5 0.3 3.5 2.3 0 1.8 -0.5 2.2 -3.2 2.2 -3.1 0 -3.3 0.2 -3.3 3.8 0 3.2 -0.3 3.7 -2.2 3.7 -1.9 0 -2.3 -0.5 -2.3 -3.4z"/>
  <path d="M67 17.5 c0 -0.8 0.7 -1.5 1.5 -1.5 2 0 1.9 -1.7 -0.2 -2.9 -1.6 -0.9 -1.6 -1 0.5 -1.1 1.5 0 2.2 -0.6 2.2 -2 0 -1.8 0.2 -1.9 2 -0.8 1.1 0.7 2.3 2.1 2.6 3.1 0.5 1.6 0.9 1.5 2.6 -1.3 1.7 -2.8 2.3 -3.2 5 -2.6 1.7 0.3 3.7 0.6 4.4 0.6 0.9 0 1.4 1.1 1.4 3 0 3 -0.1 3 -2.3 1.5 -2.2 -1.4 -3.7 -1.2 -3.7 0.6 0 0.4 1.4 1 3 1.4 1.7 0.4 3 1.3 3 2.1 0 2 -8.4 1.9 -10.4 -0.2 -1.5 -1.4 -1.6 -1.4 -1.6 0 0 2.7 -1.8 1.8 -2.3 -1.1 l-0.4 -2.8 -0.2 2.8 c-0.1 2.4 -0.5 2.7 -3.6 2.7 -2.4 0 -3.5 -0.5 -3.5 -1.5z m15 -4.5 c0 -0.5 -0.9 -1 -2 -1 -1.1 0 -2 0.5 -2 1 0 0.6 0.9 1 2 1 1.1 0 2 -0.4 2 -1z"/>
  <path d="M5 14 c0 -2.2 0.2 -4 0.4 -4 0.2 0 1.1 -0.3 2 -0.6 1.2 -0.5 1.6 0 1.6 2.2 l0 2.9 2.3 -3.2 c1.8 -2.7 2.9 -3.3 6 -3.3 3.3 0 3.7 0.2 2.8 1.8 -1.4 2.6 -4.1 4.8 -4.1 3.3 0 -0.6 -0.4 -1.1 -1 -1.1 -0.5 0 -1 0.7 -1 1.6 0 2.5 -2.6 4.4 -5.9 4.4 -2.9 0 -3.1 -0.2 -3.1 -4z"/>
 </g>
 <g fill="#cecece">
  <path d="M5.2 23.3 c0.3 -4.6 0.4 -4.8 3.6 -5.1 4.3 -0.4 4.1 -2.2 -0.3 -2.2 l-3.5 0 0 -5.5 c0 -4.3 -0.3 -5.5 -1.6 -5.5 -0.9 0 -1.4 -0.7 -1.2 -1.7 0.2 -1.3 1.3 -1.8 3.3 -1.8 l3 0 0 6.8 c0 6.2 0.1 6.6 1.5 5 1 -1.2 2.6 -1.7 4.7 -1.5 l3.3 0.3 -2.5 3.7 c-1.4 2 -2.5 5 -2.5 6.6 l0 2.9 -2.3 -2.1 -2.2 -2.1 0 3.2 c0 2.2 -0.5 3.3 -1.8 3.5 -1.6 0.3 -1.8 -0.3 -1.5 -4.5z"/>
  <path d="M17 25.3 c0 -2.5 0 -2.6 2 -0.8 1.1 1 2 2.2 2 2.7 0 0.4 -0.9 0.8 -2 0.8 -1.5 0 -2 -0.7 -2 -2.7z"/>
  <path d="M30 27.1 c0 -0.6 -0.9 -1.1 -2 -1.1 -1.4 0 -2 -0.7 -2 -2.2 0 -2 0.5 -2.3 3.5 -2.3 2.1 0 3.5 0.5 3.5 1.3 0 0.6 0.9 1.2 2 1.2 1.3 0 2 0.7 2 2 0 1.3 -0.7 2 -2 2 -1.1 0 -2 -0.5 -2 -1.1 0 -0.8 -0.5 -0.8 -1.5 0.1 -1 0.9 -1.5 0.9 -1.5 0.1z"/>
  <path d="M21 25 c-0.9 -1.7 -0.8 -2 1 -2 1.3 0 2 0.7 2 2 0 1.1 -0.4 2 -1 2 -0.5 0 -1.4 -0.9 -2 -2z"/>
  <path d="M82 25 c0 -1.1 -0.7 -2 -1.5 -2 -0.8 0 -1.5 -0.4 -1.5 -1 0 -1.5 2.8 -1.2 5.4 0.6 1.7 1.1 2.6 1.2 3.1 0.4 0.9 -1.5 0.7 -1.7 -4 -3.2 -5.2 -1.7 -5.8 -3.8 -1.1 -3.8 2.9 0 3.6 0.4 3.6 2 0 1.1 0.5 2 1 2 0.6 0 1 -0.9 1 -1.9 0 -2.4 3.6 -1.7 5.1 1 0.8 1.6 0.6 1.9 -1.6 1.9 -2.1 0 -2.5 0.5 -2.5 3 0 2.8 -0.3 3 -3.5 3 -2.8 0 -3.5 -0.4 -3.5 -2z"/>
  <path d="M54 20.5 c0 -1.9 0.5 -3.5 1 -3.5 0.6 0 1 1.6 1 3.5 0 1.9 -0.4 3.5 -1 3.5 -0.5 0 -1 -1.6 -1 -3.5z"/>
  <path d="M58 22.1 c-1.6 -3.1 -1.2 -5.1 1 -5.1 1.6 0 2 0.7 2 3.5 0 3.9 -1.4 4.6 -3 1.6z"/>
  <path d="M25 13.5 c0 -3.3 0.2 -3.5 3.5 -3.5 2.9 0 3.5 0.4 3.5 2.1 0 1.5 -0.5 1.9 -1.5 1.5 -0.9 -0.3 -2.4 0.3 -3.5 1.4 -2 2 -2 2 -2 -1.5z"/>
  <path d="M55.3 12.5 c0 -2.2 0.2 -3 0.4 -1.7 0.2 1.2 0.2 3 0 4 -0.3 0.9 -0.5 -0.1 -0.4 -2.3z"/>
  <path d="M57.7 14.1 c0.3 -1.1 1.4 -2.7 2.4 -3.7 1.8 -1.7 1.9 -1.6 1.9 1.9 0 3.2 -0.3 3.7 -2.4 3.7 -1.9 0 -2.3 -0.4 -1.9 -1.9z"/>
  <path d="M89.3 14.3 c0.9 -0.2 2.5 -0.2 3.5 0 0.9 0.3 0.1 0.5 -1.8 0.5 -1.9 0 -2.7 -0.2 -1.7 -0.5z"/>
  <path d="M68 10 c0 -1.3 0.7 -2 1.8 -2 1.1 0 2.7 0.9 3.7 2 1.8 2 1.7 2 -1.8 2 -3 0 -3.7 -0.4 -3.7 -2z"/>
  <path d="M41.2 3.3 c0.5 -2.5 6.1 -2.5 6.6 0 0.3 1.4 -0.4 1.7 -3.3 1.7 -2.9 0 -3.6 -0.3 -3.3 -1.7z"/>
  <path d="M50 3 c0 -1.6 0.7 -2 3 -2 2.3 0 3 0.4 3 2 0 1.6 -0.7 2 -3 2 -2.3 0 -3 -0.4 -3 -2z"/>
 </g>
 <g fill="#c5c5c5">
  <path d="M21.8 25.8 c-1.4 -1.4 -1.8 -2.3 -1 -2.6 0.7 -0.2 1.2 -2.4 1.2 -5.3 0 -4.6 0.2 -4.9 2.5 -4.9 1.6 0 2.5 -0.6 2.5 -1.5 0 -0.8 0.7 -1.5 1.5 -1.5 0.8 0 1.5 -0.5 1.5 -1.1 0 -0.8 0.5 -0.8 1.5 0.1 1 0.9 1.5 0.9 1.5 0.1 0 -0.6 0.9 -1.1 2 -1.1 1.5 0 2 0.7 2 2.5 0 1.6 -0.6 2.5 -1.5 2.5 -0.8 0 -1.5 0.9 -1.5 2 l0 2 -2 -2 c-2.6 -2.6 -3.6 -2.5 -5.5 0.4 -1.3 1.9 -1.4 2.9 -0.5 4.5 0.6 1.2 1.4 2.1 1.8 2.2 10 1.1 12.2 1.9 12.2 3.9 0 1.5 -0.7 2 -2.9 2 -1.7 0 -3.3 -0.5 -3.6 -1 -0.5 -0.8 -1.1 -0.7 -2.1 0.1 -1 0.8 -1.4 0.8 -1.4 0 0 -0.6 -0.9 -1.1 -2 -1.1 -1.1 0 -2 0.5 -2 1 0 1.7 -1.9 1.1 -4.2 -1.2z"/>
  <path d="M41 26 c0 -1.1 0.5 -2 1 -2 0.6 0 1 0.9 1 2 0 1.1 -0.4 2 -1 2 -0.5 0 -1 -0.9 -1 -2z"/>
  <path d="M44 26 c0 -1.3 0.7 -2 2 -2 1.3 0 2 0.7 2 2 0 1.3 -0.7 2 -2 2 -1.3 0 -2 -0.7 -2 -2z"/>
  <path d="M73 23 c0 -1.6 0.7 -2 3.5 -2 2.8 0 3.5 0.4 3.5 2 0 2.5 -1.5 2.6 -2.5 0.3 -0.6 -1.7 -0.7 -1.7 -1.6 0 -1.3 2.3 -2.9 2.2 -2.9 -0.3z"/>
  <path d="M87.6 22.5 c0.4 -0.9 -0.3 -1.6 -2 -2.1 -4.1 -1 -3.3 -3.4 1.2 -3.4 3.8 0 3.8 0 3.4 3.5 -0.3 2.1 -1 3.5 -1.8 3.5 -0.8 0 -1.1 -0.6 -0.8 -1.5z"/>
  <path d="M54 15.5 c0 -1.9 0.5 -3.5 1 -3.5 0.6 0 1 1.6 1 3.5 0 1.9 -0.4 3.5 -1 3.5 -0.5 0 -1 -1.6 -1 -3.5z"/>
  <path d="M57 17.4 c0 -2.1 1.8 -5.4 3 -5.4 0.6 0 1 1.6 1 3.5 0 2.8 -0.4 3.5 -2 3.5 -1.1 0 -2 -0.7 -2 -1.6z"/>
  <path d="M73.8 15.5 c0.4 -3.5 1.6 -4.6 2.5 -2.2 0.4 1 0.6 1 0.6 0 0.1 -0.7 1 -1.3 2.1 -1.3 1.6 0 2 0.7 2 3.7 0 3.5 0 3.6 -2 1.8 -1.8 -1.6 -2 -1.6 -2 -0.2 0 1 -0.8 1.7 -1.8 1.7 -1.5 0 -1.7 -0.6 -1.4 -3.5z"/>
  <path d="M90 12.5 c0 -3 1.5 -3.3 3 -0.6 1.4 2.7 1.3 3.1 -1 3.1 -1.5 0 -2 -0.7 -2 -2.5z"/>
  <path d="M2.2 3.3 c0.4 -2.4 5.8 -2.5 5.8 -0.1 0 1.3 -0.8 1.8 -3.1 1.8 -2.3 0 -3 -0.4 -2.7 -1.7z"/>
  <path d="M41.2 3.3 c0.2 -1.1 1.3 -1.7 3.3 -1.7 2 0 3.1 0.6 3.3 1.7 0.3 1.3 -0.4 1.7 -3.3 1.7 -2.9 0 -3.6 -0.4 -3.3 -1.7z"/>
  <path d="M50.2 3.3 c0.2 -1.1 1.2 -1.7 2.8 -1.7 1.6 0 2.6 0.6 2.8 1.7 0.3 1.3 -0.4 1.7 -2.8 1.7 -2.4 0 -3.1 -0.4 -2.8 -1.7z"/>
 </g>
 <g fill="#bdbdbd">
  <path d="M16 26 c0 -1.5 -0.7 -2 -2.5 -2 -1.4 0 -2.8 -0.7 -3.1 -1.5 -0.4 -0.8 -1 -1.5 -1.5 -1.5 -0.5 0 -0.9 0.7 -0.9 1.5 0 0.8 -0.7 1.5 -1.5 1.5 -1 0 -1.5 -1.1 -1.5 -3.5 0 -3.5 0.1 -3.5 4.3 -3.5 3.6 0 4.5 0.5 6.4 3.3 1.3 1.7 3 4.2 3.9 5.5 1.6 2.1 1.6 2.2 -1 2.2 -1.9 0 -2.6 -0.5 -2.6 -2z"/>
  <path d="M22.2 26 c-2.9 -2.7 -2.8 -4 0.3 -4 2.1 0 2.5 0.5 2.5 3 0 3.6 0 3.6 -2.8 1z"/>
  <path d="M38 26.1 c0 -1.2 0.5 -2.1 1 -2.1 0.6 0 1 0.6 1 1.4 0 0.8 -0.4 1.8 -1 2.1 -0.5 0.3 -1 -0.3 -1 -1.4z"/>
  <path d="M41 26 c0 -1.3 0.7 -2 2 -2 1.3 0 2 0.7 2 2 0 1.3 -0.7 2 -2 2 -1.3 0 -2 -0.7 -2 -2z"/>
  <path d="M90 24 c0 -2.3 0.4 -3 2 -3 2.3 0 2.7 2.9 0.8 4.8 -1.9 1.9 -2.8 1.4 -2.8 -1.8z"/>
  <path d="M27 23.9 c0 -1.1 0.4 -1.7 1 -1.4 0.5 0.3 1.9 0.1 3.1 -0.5 1.7 -0.9 2 -1.9 1.7 -4.6 -0.4 -3 -0.1 -3.4 1.9 -3.4 2 0 2.3 0.5 2.3 4 0 2.9 -0.4 4 -1.5 4 -0.8 0 -1.5 0.9 -1.5 2 0 1.6 -0.7 2 -3.5 2 -2.9 0 -3.5 -0.4 -3.5 -2.1z"/>
  <path d="M60 15.5 c0 -3.4 0.1 -3.5 3.8 -3.5 3 0.1 3.4 0.3 2 1.1 -2.2 1.2 -2.3 2.9 -0.3 2.9 0.8 0 1.5 0.7 1.5 1.5 0 1 -1.1 1.5 -3.5 1.5 -3.3 0 -3.5 -0.2 -3.5 -3.5z"/>
  <path d="M23 15.6 c0 -1.5 -0.7 -2.6 -1.7 -2.8 -1.6 -0.3 -1.5 -0.6 0.5 -2.6 2.6 -2.6 4.2 -2.8 4.2 -0.7 0 0.8 0.9 1.5 2 1.5 2.6 0 2.6 0.3 -1.1 3.9 -3.7 3.7 -3.9 3.8 -3.9 0.7z"/>
  <path d="M73 14.5 c0 -3.7 1.3 -4.6 2.8 -1.9 0.8 1.5 1 1.5 1.5 0 1.1 -2.9 2.7 -1.7 2.7 2.2 -0.1 3.5 -0.2 3.6 -1.5 1.8 -1.3 -1.7 -1.5 -1.8 -1.5 -0.3 0 1 -0.8 1.7 -2 1.7 -1.6 0 -2 -0.7 -2 -3.5z"/>
  <path d="M89 12 c0 -3.2 0.9 -3.7 2.8 -1.8 1.9 1.9 1.5 4.8 -0.8 4.8 -1.6 0 -2 -0.7 -2 -3z"/>
  <path d="M36 10 c0 -1.3 0.7 -2 2 -2 1.3 0 2 0.7 2 2 0 1.3 -0.7 2 -2 2 -1.3 0 -2 -0.7 -2 -2z"/>
  <path d="M41 8.5 c0 -1.9 0.5 -3.5 1 -3.5 0.6 0 1 1.6 1 3.5 0 1.9 -0.4 3.5 -1 3.5 -0.5 0 -1 -1.6 -1 -3.5z"/>
 </g>
 <g fill="#b5b5b5">
  <path d="M2 26 c0 -1.3 0.7 -2 2 -2 1.3 0 2 0.7 2 2 0 1.3 -0.7 2 -2 2 -1.3 0 -2 -0.7 -2 -2z"/>
  <path d="M27 26.5 c0 -1 -1 -1.5 -3 -1.5 -3 0 -5 -2.2 -5 -5.4 0 -2.6 4.9 -2 7.2 0.9 1.7 2.2 2.4 2.4 6.4 1.8 l4.4 -0.6 0 3.2 c0 3.1 -2.3 4.5 -3.3 1.9 -0.4 -1 -0.7 -1 -1.8 0 -1.8 1.7 -4.9 1.5 -4.9 -0.3z"/>
  <path d="M44 15.1 c0 -12.5 0.1 -13.1 2 -13.1 2 0 2 0.5 1.8 12.7 -0.3 11.2 -0.5 12.8 -2 13.1 -1.6 0.3 -1.8 -0.8 -1.8 -12.7z"/>
  <path d="M50.4 15 c0 -7.4 0.1 -10.5 0.3 -6.7 0.2 3.7 0.2 9.7 0 13.5 -0.2 3.7 -0.3 0.6 -0.3 -6.8z"/>
  <path d="M61.3 26.5 c-2.7 -1.9 -4.6 -7.5 -3.7 -10.9 0.5 -2.2 1.2 -2.6 4.1 -2.6 3 0 3.4 0.2 2.3 1.5 -1.1 1.3 -0.7 1.5 3 1.5 3.7 0 4.1 -0.2 3 -1.5 -0.7 -0.8 -1.9 -1.5 -2.6 -1.5 -0.8 0 -1.4 -0.7 -1.4 -1.5 0 -1 1.1 -1.5 3.5 -1.5 3.5 0 3.5 0 3.5 4.5 l0 4.5 -4.5 0 c-3.4 0 -4.5 0.4 -4.5 1.5 0 0.9 0.7 1.8 1.5 2.1 0.8 0.4 1.5 1.7 1.5 3 0 2.8 -2.4 3.2 -5.7 0.9z"/>
  <path d="M81.6 26 c-2.7 -0.9 -4.5 -2.5 -4.6 -4.2 0 -1.5 5.4 -0.8 7.2 0.9 1.4 1.3 2.1 1.4 3 0.5 1.3 -1.3 0.4 -2.7 -2.2 -3.5 -0.8 -0.2 -0.3 -0.3 1.3 -0.1 1.9 0.2 2.7 -0.1 2.7 -1.1 0 -1.9 1.5 -1.9 3.4 0.1 2 2 2 3.4 0.1 3.4 -0.9 0 -1.5 0.9 -1.5 2.5 0 2.2 -0.4 2.5 -3.2 2.4 -1.8 0 -4.6 -0.5 -6.2 -0.9z"/>
  <path d="M16 23.4 c0 -1.4 0.3 -1.4 1.5 -0.4 0.8 0.7 1.5 1.4 1.5 1.6 0 0.2 -0.7 0.4 -1.5 0.4 -0.8 0 -1.5 -0.7 -1.5 -1.6z"/>
  <path d="M54 18 c0 -2.7 0.5 -5 1 -5 0.6 0 1 2.3 1 5 0 2.8 -0.4 5 -1 5 -0.5 0 -1 -2.2 -1 -5z"/>
  <path d="M11 17.6 c0 -1.3 -0.5 -2.6 -1 -2.8 -0.6 -0.2 0.2 -1.8 1.7 -3.6 2.3 -2.8 3.4 -3.3 6 -3 l3.3 0.3 -3.6 4.4 c-1.9 2.5 -3.2 5.1 -3 5.8 0.3 0.8 -0.2 1.3 -1.4 1.3 -1.4 0 -2 -0.7 -2 -2.4z"/>
  <path d="M74 13.4 c0 -2.8 1.5 -2.5 2.3 0.6 0.3 1.3 0 2 -0.9 2 -0.8 0 -1.4 -1 -1.4 -2.6z"/>
  <path d="M77.4 14.6 c-0.6 -1.7 1.2 -5.6 2.6 -5.6 0.6 0 1 1.6 1 3.5 0 2.5 -0.4 3.5 -1.5 3.5 -0.9 0 -1.8 -0.6 -2.1 -1.4z"/>
  <path d="M20.1 12.7 c0.6 -1.3 1.9 -2.8 3 -3.5 1.7 -1.1 1.9 -0.9 1.9 1.7 0 2.1 -0.6 3 -2.2 3.5 -3.6 0.9 -3.8 0.8 -2.7 -1.7z"/>
 </g>
 <g fill="#adadad">
  <path d="M22.5 26 c-1.8 -2 -1.7 -2 1.8 -2 3 0 3.7 0.4 3.7 2 0 1.3 -0.7 2 -1.8 2 -1.1 0 -2.7 -0.9 -3.7 -2z"/>
  <path d="M36 21.1 c0 -6.2 -0.2 -7.1 -1.8 -7.1 -3.1 0 -7.2 -2.4 -7.2 -4.2 0 -2.1 3 -2.4 4.8 -0.6 1 1 1.5 1 2.1 0 0.5 -0.8 1.9 -1.2 3.2 -1 2.3 0.3 2.4 0.5 2.4 9.8 0 8.2 -0.2 9.5 -1.7 9.8 -1.6 0.3 -1.8 -0.5 -1.8 -6.7z"/>
  <path d="M41.7 27.4 c-0.4 -0.4 -0.7 -6.3 -0.7 -13.1 l0 -12.3 3.4 0 c2.9 0 3.3 0.3 2.9 2 -0.3 1.1 -0.9 2 -1.4 2 -1.2 0 -1.2 16.7 0 17.2 0.5 0.2 1.1 1.2 1.3 2.3 0.2 1.5 -0.3 2.1 -2.2 2.3 -1.4 0.2 -2.9 0 -3.3 -0.4z"/>
  <path d="M79.4 25.5 c-2.5 -2.5 -2.5 -4.5 0.2 -4.5 0.8 0 1.4 0.7 1.4 1.5 0 0.9 0.9 1.5 2.5 1.5 1.8 0 2.5 0.5 2.5 2 0 2.8 -3.5 2.6 -6.6 -0.5z"/>
  <path d="M74 23.1 c0 -1.2 0.5 -2.1 1 -2.1 0.6 0 1 0.6 1 1.4 0 0.8 -0.4 1.8 -1 2.1 -0.5 0.3 -1 -0.3 -1 -1.4z"/>
  <path d="M54 18 c0 -2.2 0.5 -4 1 -4 0.6 0 1 1.8 1 4 0 2.2 -0.4 4 -1 4 -0.5 0 -1 -1.8 -1 -4z"/>
  <path d="M57.7 20 c-0.7 -2.8 0.3 -6 1.9 -6 1 0 1.4 1.3 1.4 4 0 4.3 -2.3 5.7 -3.3 2z"/>
  <path d="M62 16.3 c0 -2.3 -0.5 -3.3 -1.5 -3.3 -2.2 0 -1.8 -1.7 0.7 -3.4 4.9 -3.5 7.8 -0.7 3.8 3.6 -2.5 2.7 -1.9 3.6 2.2 3.4 2.5 -0.2 3.2 -0.6 3 -1.9 -0.2 -0.9 0.2 -1.7 0.8 -1.7 0.5 0 1 1.3 1 2.9 0 2.8 -0.2 2.9 -5 3.3 l-5 0.3 0 -3.2z"/>
  <path d="M84.7 17.8 c-0.4 -1.2 -0.5 -2.3 -0.4 -2.4 0.1 -0.1 1.7 0.3 3.6 1 4.8 1.5 5.2 3.6 0.8 3.6 -2.7 0 -3.6 -0.5 -4 -2.2z"/>
  <path d="M19 16.4 c0 -2.1 1.8 -5.4 3 -5.4 0.6 0 1 1.6 1 3.5 0 2.8 -0.4 3.5 -2 3.5 -1.1 0 -2 -0.7 -2 -1.6z"/>
  <path d="M74 14.3 c0 -4.1 1.4 -3.6 2.5 1 0.6 2.1 0.4 2.7 -0.9 2.7 -1.2 0 -1.6 -1 -1.6 -3.7z"/>
  <path d="M78.1 16.2 c-1.3 -2.4 -0.3 -6.2 1.5 -6.2 1 0 1.4 1.3 1.4 4 0 4.2 -1.3 5.2 -2.9 2.2z"/>
  <path d="M86.3 13.1 c-2.7 -2.2 -2.9 -3.1 -0.8 -3.1 0.8 0 1.5 -0.4 1.5 -1 0 -1.6 1.8 -1.2 4 1 4 4 -0.3 6.7 -4.7 3.1z"/>
 </g>
 <g fill="#a5a5a5">
  <path d="M2.7 27.3 c-0.4 -0.3 -0.7 -6.2 -0.7 -13 0 -11.6 0.1 -12.3 2 -12.3 1.7 0 2 0.7 2 4.5 0 2.5 0.5 4.5 1 4.5 0.6 0 1 1 1 2.2 l0 2.1 2.5 -2.3 2.5 -2.3 0 2.4 c0 1.4 0.8 4 1.8 5.9 1.7 3.5 1.8 9 0.2 9 -1.6 0 -4.5 -5.3 -4.2 -7.7 0.3 -1.9 -0.1 -2.3 -2.2 -2.3 -2.4 0 -2.6 0.3 -2.6 5 0 3.5 -0.4 5 -1.3 5 -0.8 0 -1.7 -0.3 -2 -0.7z"/>
  <path d="M41.8 27.4 c-0.3 -0.3 -0.4 -1.4 -0.1 -2.5 0.8 -2.8 3.3 -2.4 3.3 0.6 0 2.3 -1.8 3.4 -3.2 1.9z"/>
  <path d="M67 26 c0 -1.5 0.7 -2 2.5 -2 1.6 0 2.5 -0.6 2.5 -1.5 0 -0.8 0.9 -1.5 2 -1.5 2.8 0 2.5 2.5 -0.6 4.9 -3.4 2.7 -6.4 2.7 -6.4 0.1z"/>
  <path d="M81 26.7 c-1.5 -0.7 -2.6 -2.3 -2.8 -3.7 -0.2 -2 -0.1 -2.2 0.7 -1 0.7 1 1.1 1.1 1.1 0.3 0 -2.3 3 -1.3 3.6 1.2 0.9 3.7 0.2 4.6 -2.6 3.2z"/>
  <path d="M60 25 c-2.7 -2.7 -2.5 -4 0.5 -4 2.1 0 2.5 0.5 2.5 3 0 3.5 -0.3 3.7 -3 1z"/>
  <path d="M32.6 20.5 c1.5 -2.3 1.5 -2.7 0 -5 -1.6 -2.5 -1.6 -2.5 1.4 -2.5 2.9 0 3 0.1 3 5 0 4.9 -0.1 5 -3 5 -3 0 -3 0 -1.4 -2.5z"/>
  <path d="M81.8 19.3 c-1.1 -0.3 -1.8 -1.4 -1.8 -2.9 0 -1.3 -0.4 -2.4 -1 -2.4 -1.4 0 -1.3 -3.7 0.1 -4.6 2.4 -1.5 9.4 -1.3 11.4 0.3 1.4 1 1.6 1.7 0.8 2 -0.7 0.3 -1.3 1.1 -1.3 1.9 0 1.8 -0.8 1.8 -2.7 -0.1 -1.7 -1.7 -3.4 -1.6 -4.1 0.3 -0.2 0.6 0.8 1.4 2.3 1.8 1.7 0.4 2.5 1.2 2.3 2.3 -0.3 1.6 -2.9 2.3 -6 1.4z"/>
  <path d="M17 10 c0 -1.4 0.7 -2 2.2 -2 2 0 2.1 0.1 0.3 2 -1 1.1 -2 2 -2.2 2 -0.1 0 -0.3 -0.9 -0.3 -2z"/>
  <path d="M22.5 10 c1 -1.1 2.6 -2 3.7 -2 1.1 0 1.8 0.7 1.8 2 0 1.6 -0.7 2 -3.7 2 -3.5 0 -3.6 0 -1.8 -2z"/>
  <path d="M41.7 4 c-0.4 -1.5 0 -2 1.4 -2 1.2 0 1.9 0.7 1.9 2 0 1.1 -0.6 2 -1.4 2 -0.7 0 -1.6 -0.9 -1.9 -2z"/>
 </g>
 <g fill="#9c9c9c">
  <path d="M2.8 27.4 c-0.3 -0.3 -0.4 -1.4 -0.1 -2.5 0.8 -2.8 3.3 -2.4 3.3 0.6 0 2.3 -1.8 3.4 -3.2 1.9z"/>
  <path d="M15 24.4 c0 -3.9 0.9 -3.8 4 0.6 l2.1 3 -3 0 c-2.9 0 -3.1 -0.3 -3.1 -3.6z"/>
  <path d="M52 26 c0 -1.3 0.7 -2 2 -2 1.3 0 2 0.7 2 2 0 1.3 -0.7 2 -2 2 -1.3 0 -2 -0.7 -2 -2z"/>
  <path d="M69 25.4 c0 -2 0.5 -2.4 3 -2.4 1.7 0 3 -0.5 3 -1.2 0 -0.6 0.3 -0.8 0.6 -0.5 1.1 1 -2.3 5.4 -4.5 6 -1.7 0.4 -2.1 0 -2.1 -1.9z"/>
  <path d="M83.4 27.1 c-4.3 -1.1 -5.4 -1.9 -5.4 -4.2 0 -2.3 3.4 -2.6 5.6 -0.4 0.9 0.8 3.3 1.5 5.5 1.5 4.2 0 5.1 1.3 2 3 -2.2 1.1 -3.2 1.1 -7.7 0.1z"/>
  <path d="M61.5 26.2 c-0.5 -0.4 -1.6 -1.5 -2.4 -2.4 -1.2 -1.6 -1.1 -1.8 1.8 -1.8 2.6 0 3.1 0.4 3.1 2.5 0 2.5 -0.7 3 -2.5 1.7z"/>
  <path d="M7.2 22.8 c-0.2 -2.8 0.2 -3.8 1.3 -3.8 0.9 0 1.5 -0.9 1.5 -2.5 0 -1.8 0.5 -2.5 2 -2.5 1.5 0 2 -0.7 2 -2.5 0 -2.1 0.5 -2.5 3.1 -2.5 3.4 0 3.3 0.2 -1.4 5.6 -1 1.2 -1.8 3 -1.7 4 0.1 1.1 0.2 3.3 0.1 4.9 l-0.2 3 -2.9 -3.4 -2.9 -3.4 -0.4 3.4 -0.4 3.4 -0.1 -3.7z"/>
  <path d="M20 22.5 c-1.5 -3.9 -1.2 -5.5 1 -5.5 1.6 0 2 0.7 2 3.4 0 4.4 -1.7 5.5 -3 2.1z"/>
  <path d="M67 18.1 c0 -0.5 0.9 -1.1 2 -1.4 2.3 -0.6 1.7 -3.7 -0.6 -3.7 -0.8 0 -1.4 -0.4 -1.4 -1 0 -1.2 5.9 -1.3 7.7 -0.2 0.7 0.4 1.6 2.2 1.9 4 l0.7 3.2 -5.2 0 c-2.8 0 -5.1 -0.4 -5.1 -0.9z"/>
  <path d="M79.2 17.8 c-1.8 -1.8 -1.4 -6.3 0.6 -8.1 2.6 -2.3 5.2 -2.2 5.2 0.3 0 1.5 -0.7 2 -2.5 2 -1.6 0 -2.5 0.6 -2.5 1.5 0 0.8 0.9 1.5 2 1.5 1.3 0 2 0.7 2 2 0 2.3 -2.9 2.7 -4.8 0.8z"/>
  <path d="M32.7 15.5 c-2.2 -3.1 -4 -3.2 -6.7 -0.3 l-2 2.2 0 -3.7 c0 -4.1 0.6 -4.3 8.3 -3.1 3.4 0.6 3.7 0.9 3.7 4 0 4 -0.8 4.2 -3.3 0.9z"/>
  <path d="M58 14.4 c0 -1.3 2.1 -4.2 3.5 -4.8 1.1 -0.4 1.5 0.2 1.5 2.4 0 2.5 -0.4 3 -2.5 3 -1.4 0 -2.5 -0.3 -2.5 -0.6z"/>
  <path d="M88 11.5 c0 -2.9 1.2 -3.2 3.4 -0.9 2.3 2.2 2 3.4 -0.9 3.4 -2 0 -2.5 -0.5 -2.5 -2.5z"/>
  <path d="M2.7 4 c-0.4 -1.5 0 -2 1.4 -2 1.2 0 1.9 0.7 1.9 2 0 1.1 -0.6 2 -1.4 2 -0.7 0 -1.6 -0.9 -1.9 -2z"/>
 </g>
 <g fill="#949494">
  <path d="M17 25.3 c0 -1.4 0.1 -2.4 0.3 -2.2 0.1 0.2 1.1 1.4 2.1 2.7 1.9 2.2 1.9 2.2 -0.2 2.2 -1.7 0 -2.2 -0.6 -2.2 -2.7z"/>
  <path d="M50 26 c0 -1.3 0.7 -2 2 -2 1.3 0 2 0.7 2 2 0 1.3 -0.7 2 -2 2 -1.3 0 -2 -0.7 -2 -2z"/>
  <path d="M88 27 c0 -0.6 -0.7 -1 -1.5 -1 -0.8 0 -1.5 -0.4 -1.5 -1 0 -0.5 0.7 -1 1.5 -1 2.1 0 1.9 -2.9 -0.2 -3.8 -1.4 -0.5 -1.2 -0.8 1.2 -1.3 l3 -0.7 -2.7 -0.1 c-1.6 0 -2.8 -0.6 -2.8 -1.2 0 -1.6 5.1 -0.2 7.5 2.1 1.5 1.6 1.7 2.5 1 4.6 -1 2.6 -5.5 5.4 -5.5 3.4z"/>
  <path d="M21.5 25 c-2.2 -2.4 -1.8 -4.8 0.8 -5.3 1.9 -0.4 1.8 -0.4 -0.5 -0.6 -2.9 -0.1 -3.2 -0.9 -2.2 -4.8 0.5 -1.9 1.3 -2.3 5 -2.3 l4.4 0 -2 2 c-2.4 2.4 -2.6 5.3 -0.4 7.4 2.2 2.2 4 2 6.2 -0.9 2.6 -3.3 3.2 -3.2 3.2 1 0 2.6 -0.4 3.5 -1.7 3.6 -1 0 -3.9 0.4 -6.5 0.8 -3.9 0.6 -5.1 0.5 -6.3 -0.9z"/>
  <path d="M55.3 22.5 c0 -2.2 0.2 -3 0.4 -1.7 0.2 1.2 0.2 3 0 4 -0.3 0.9 -0.5 -0.1 -0.4 -2.3z"/>
  <path d="M59.7 24.2 c-1.9 -2 -2.3 -5.2 -0.7 -5.2 0.6 0 1 -1 1 -2.2 0 -5.1 1.1 -6.6 5.7 -7.8 4 -1.2 4.7 -1.1 7.1 0.7 3.5 2.6 4.2 6.3 1.3 6.3 -1.5 0 -2.1 -0.7 -2.2 -2.2 0 -1.3 -0.3 -1.8 -0.5 -1.2 -0.2 0.6 -1.7 0.9 -3.2 0.6 -1.8 -0.2 -3.3 0.2 -4.2 1.3 -1.1 1.4 -1 1.7 0.8 2.2 2.8 0.7 2.9 2.3 0.1 2.3 -2.6 0 -2 2.2 0.9 3.5 1.2 0.5 2.2 1.5 2.2 2.2 0 2 -6.4 1.6 -8.3 -0.5z"/>
  <path d="M10 20.5 c0 -0.9 -0.9 -1.5 -2.5 -1.5 -2.2 0 -2.5 -0.4 -2.5 -3.5 0 -2.4 0.5 -3.5 1.5 -3.5 0.8 0 1.5 0.7 1.5 1.5 0 2.4 1.3 1.7 3.8 -2 2.3 -3.6 4.2 -4.6 4.2 -2.1 0 0.8 0.3 2.1 0.6 3 0.5 1.2 -0.1 1.6 -2.2 1.7 -2.4 0 -2.6 0.2 -1 0.8 1.4 0.5 1.6 1 0.7 1.5 -0.9 0.6 -0.9 1.3 0.4 3.2 1.5 2.4 1.5 2.4 -1.5 2.4 -2 0 -3 -0.5 -3 -1.5z"/>
  <path d="M86.7 12.9 c-1.8 -2 -1.8 -2 2 -1.7 2.7 0.2 3.9 0.8 4.1 2.1 0.5 2.4 -3.8 2.1 -6.1 -0.4z"/>
 </g>
 <g fill="#8c8c8c">
  <path d="M3 26 c0 -1.5 0.7 -2 2.5 -2 1.8 0 2.5 0.5 2.5 2 0 1.5 -0.7 2 -2.5 2 -1.8 0 -2.5 -0.5 -2.5 -2z"/>
  <path d="M13 26 c-0.7 -1.4 -0.7 -2 0 -2 0.5 0 1 -1 1 -2.2 0.1 -2.1 0.3 -2 3 1.2 3.7 4.3 3.7 5 0 5 -1.9 0 -3.3 -0.7 -4 -2z"/>
  <path d="M34 26.4 c0 -0.8 -0.4 -1.2 -1 -0.9 -0.5 0.3 -1 0.1 -1 -0.4 0 -0.6 1.6 -1.1 3.5 -1.1 2.8 0 3.5 0.4 3.5 2 0 1.5 -0.7 2 -2.5 2 -1.6 0 -2.5 -0.6 -2.5 -1.6z"/>
  <path d="M42 26 c0 -1.5 0.7 -2 2.5 -2 1.8 0 2.5 0.5 2.5 2 0 1.5 -0.7 2 -2.5 2 -1.8 0 -2.5 -0.5 -2.5 -2z"/>
  <path d="M50.7 27.4 c-1.7 -1.7 -0.5 -3.4 2.4 -3.4 2.4 0 3 0.4 2.7 1.8 -0.3 1.7 -3.8 2.9 -5.1 1.6z"/>
  <path d="M62.8 26.9 c-2.9 -1.6 -2.1 -2.9 1.7 -2.9 2.8 0 3.5 0.4 3.5 2 0 2.2 -2.4 2.6 -5.2 0.9z"/>
  <path d="M80.6 25.9 c-1.4 -1.1 -2.6 -2.7 -2.6 -3.5 0 -1.9 4.6 -1.8 5.4 0.1 0.3 0.8 1.2 1.5 2.1 1.5 0.8 0 1.5 0.9 1.5 2 0 2.6 -3 2.6 -6.4 -0.1z"/>
  <path d="M88.9 25.5 c-0.4 -4.1 -1.3 -5.2 -5.2 -6.1 -1.9 -0.4 -2.6 -0.9 -1.7 -1.2 0.8 -0.3 1.8 -0.9 2.1 -1.5 0.9 -1.3 6.9 0.2 6.9 1.8 0 0.7 0.7 1.5 1.5 1.9 1.9 0.7 1.9 3 -0.1 5 -2 2 -3.4 2 -3.5 0.1z"/>
  <path d="M21.9 25.6 c-1.1 -1.1 0.3 -8.6 1.7 -8.6 0.8 0 1.4 0.7 1.4 1.5 0 0.8 0.9 2.4 2 3.5 l2 2 -2.9 0 c-1.6 0 -3.1 0.5 -3.3 1.1 -0.2 0.5 -0.6 0.8 -0.9 0.5z"/>
  <path d="M73 16 c0 -2 0.5 -3 1.5 -3 0.8 0 1.5 0.3 1.5 0.8 0 0.4 0.3 1.7 0.6 3 0.5 1.8 0.2 2.2 -1.5 2.2 -1.7 0 -2.1 -0.6 -2.1 -3z"/>
  <path d="M78.7 17.3 c-1.1 -1 -0.8 -4.3 0.3 -4.3 0.6 0 1 1.1 1 2.5 0 2.6 -0.2 2.9 -1.3 1.8z"/>
  <path d="M32.7 15 c-0.9 -1.1 -2.4 -2 -3.2 -2 -0.8 0 -1.5 -0.7 -1.5 -1.5 0 -1.2 0.9 -1.5 3.5 -1.3 3.2 0.2 3.5 0.4 3.5 3.5 0 3.9 0 3.9 -2.3 1.3z"/>
  <path d="M55.3 13.5 c0 -2.2 0.2 -3 0.4 -1.7 0.2 1.2 0.2 3 0 4 -0.3 0.9 -0.5 -0.1 -0.4 -2.3z"/>
  <path d="M58 15.2 c0 -3.3 3.7 -6.2 8 -6.2 3.2 0 4 0.4 4 1.9 0 1.3 -0.7 1.9 -2.7 1.9 -1.5 0 -2.9 0.5 -3.1 1.1 -0.2 0.6 -0.8 0.9 -1.3 0.5 -0.5 -0.3 -0.9 0.2 -0.9 1 0 0.9 -0.9 1.6 -2 1.6 -1.3 0 -2 -0.7 -2 -1.8z"/>
  <path d="M20 14.2 c0 -1.1 0.9 -2.7 2 -3.7 2 -1.8 2 -1.7 2 1.8 0 3 -0.4 3.7 -2 3.7 -1.3 0 -2 -0.7 -2 -1.8z"/>
  <path d="M90.3 14.2 c-1.6 -0.5 -2 -1.1 -1.4 -2.1 1.1 -1.7 4.1 -0.7 4.1 1.4 0 0.8 -0.1 1.5 -0.2 1.4 -0.2 -0.1 -1.3 -0.4 -2.5 -0.7z"/>
  <path d="M17 10.5 c0 -0.8 0.7 -1.5 1.6 -1.5 1.4 0 1.4 0.3 0.4 1.5 -0.7 0.8 -1.4 1.5 -1.6 1.5 -0.2 0 -0.4 -0.7 -0.4 -1.5z"/>
 </g>
 <g fill="#848484">
  <path d="M3 25.8 c0 -1.2 0.8 -1.8 2.5 -1.8 1.7 0 2.5 0.6 2.5 1.8 0 1.2 -0.8 1.7 -2.5 1.7 -1.7 0 -2.5 -0.5 -2.5 -1.7z"/>
  <path d="M23.8 26.9 c-2.8 -1.6 -2.1 -2.6 2 -3.2 2 -0.3 5.2 -0.9 7 -1.3 2.1 -0.4 3.2 -0.2 3.2 0.5 0 0.6 0.7 1.1 1.5 1.1 0.8 0 1.5 0.8 1.5 1.8 0 1.2 -0.8 1.7 -2.5 1.7 -1.4 0 -2.5 -0.6 -2.5 -1.3 0 -1 -0.5 -0.9 -2.2 0.2 -2.6 1.8 -5.5 2 -8 0.5z"/>
  <path d="M42 25.8 c0 -1.2 0.8 -1.8 2.5 -1.8 1.7 0 2.5 0.6 2.5 1.8 0 1.2 -0.8 1.7 -2.5 1.7 -1.7 0 -2.5 -0.5 -2.5 -1.7z"/>
  <path d="M64.8 27.3 c-1.3 -0.3 -1.8 -1.4 -1.7 -3.6 0 -1.8 0.3 -2.6 0.6 -1.9 0.6 1.5 4.5 1.6 6.1 0 0.9 -0.9 1.2 -0.8 1.2 0.4 0 0.9 0.6 1.9 1.3 2.2 0.8 0.3 0.6 0.9 -0.7 2 -2 1.6 -3.5 1.8 -6.8 0.9z"/>
  <path d="M85 26.5 c0 -0.8 -0.4 -1.5 -1 -1.5 -0.5 0 -1 0.5 -1 1 0 0.6 -0.4 1 -0.9 1 -1.4 0 -4.1 -2.9 -4.1 -4.4 0 -1.6 3.6 -1.4 5.2 0.2 1.4 1.4 4.4 1.6 5.2 0.4 0.9 -1.4 -0.8 -2.9 -4.1 -3.7 -2 -0.4 -3.3 -1.3 -3.3 -2.2 0 -2.4 9 -1 11.3 1.8 2.2 2.8 2.2 3.5 -0.8 6.4 -2.7 2.8 -6.5 3.3 -6.5 1z"/>
  <path d="M12.3 25.1 c-1.1 -1.7 -0.8 -1.9 1.8 -2.3 2.5 -0.4 2.9 -0.1 2.9 1.9 0 2.9 -3 3.1 -4.7 0.4z"/>
  <path d="M19.6 20.5 c-0.8 -3.3 0.3 -7.5 2 -7.5 1 0 1.4 1.4 1.4 5 0 5.5 -2.3 7.1 -3.4 2.5z"/>
  <path d="M12.8 14.3 c-0.2 -1.8 0 -3.9 0.4 -4.7 0.9 -1.6 6.8 -2.3 6.8 -0.8 0 0.4 -1.5 2.5 -3.4 4.7 l-3.3 3.9 -0.5 -3.1z"/>
  <path d="M69 10.5 c0 -1.9 0.4 -2.3 1.8 -1.8 4.8 1.7 5.5 4.3 1.2 4.3 -2.5 0 -3 -0.4 -3 -2.5z"/>
  <path d="M32 10.9 c0 -0.5 0.5 -0.7 1 -0.4 0.6 0.3 1 -0.1 1 -0.9 0 -1 0.9 -1.6 2.5 -1.6 1.8 0 2.5 0.5 2.5 2 0 1.6 -0.7 2 -3.5 2 -1.9 0 -3.5 -0.5 -3.5 -1.1z"/>
  <path d="M61 11 c0 -1.2 3.3 -3 5.4 -3 0.9 0 1.6 0.9 1.6 2 0 1.6 -0.7 2 -3.5 2 -1.9 0 -3.5 -0.4 -3.5 -1z"/>
  <path d="M84 10 c0 -2.2 2 -2.6 5.1 -1 3 1.6 2.3 3 -1.6 3 -2.8 0 -3.5 -0.4 -3.5 -2z"/>
 </g>
 <g fill="#7b7b7b">
  <path d="M28 25.6 c0 -1.7 0.7 -2.6 2.4 -3 4.6 -1.1 4.5 -7.9 -0.1 -9.7 -1.3 -0.5 -4.1 -0.9 -6.1 -0.9 l-3.7 -0.1 2.4 -1.9 c2.8 -2.4 5.9 -2.5 8.9 -0.4 1.7 1.1 2.2 1.2 2.2 0.2 0 -0.7 1.1 -1.3 2.5 -1.3 1.7 0 2.5 0.6 2.5 1.8 0 0.9 -0.4 1.7 -1 1.7 -0.5 0 -1 1.6 -1 3.5 0 1.9 -0.4 3.5 -1 3.5 -0.5 0 -1 1.9 -1 4.3 0 3.1 -0.3 3.8 -1 2.7 -0.7 -1 -1.2 -1.1 -1.7 -0.4 -0.5 0.6 -1.6 1.3 -2.5 1.7 -1.4 0.5 -1.8 0.1 -1.8 -1.7z"/>
  <path d="M64 27.3 c-3.2 -1.3 -4 -3.3 -4 -9.7 0 -6.3 0.1 -6.6 2.4 -6.6 1.3 0 2.6 -0.7 3 -1.5 1.4 -3.8 7.8 -0.5 6.9 3.7 -0.5 2.6 -0.5 2.6 -2.4 0.7 -2.3 -2.3 -3.3 -2.4 -5.3 -0.3 -2.2 2.1 -2 3.4 0.4 3.4 1.1 0 2 0.5 2 1 0 0.6 -0.9 1 -2 1 -2.4 0 -2.6 1.3 -0.4 3.4 1.9 2 2.8 2 4.4 0.1 1.4 -1.7 7 -2.1 7 -0.5 0 1.8 -4.1 5.2 -5.6 4.6 -0.8 -0.3 -1.4 -0.1 -1.4 0.4 0 1.1 -2.6 1.2 -5 0.3z"/>
  <path d="M82.8 27.3 c-3.3 -0.8 -2 -3.3 1.7 -3.3 2.8 0 3.5 0.4 3.5 2 0 2 -1.4 2.3 -5.2 1.3z"/>
  <path d="M11.3 23.5 c-2.9 -3.5 -3.2 -3.7 -3.3 -1.7 0 1.2 -0.5 2.2 -1.1 2.2 -0.8 0 -1 -1.6 -0.5 -5.2 0.3 -2.9 0.6 -6.2 0.7 -7.3 0.1 -1.1 0.4 -0.5 0.8 1.4 l0.6 3.4 2.7 -3.8 c2.1 -2.9 3.4 -3.8 5.7 -3.9 1.7 -0.1 3.1 0.1 3.1 0.5 0 1.1 -2.5 2.9 -4.1 2.9 -1.9 0 -3.5 7 -1.8 8.1 0.6 0.3 0.9 2.1 0.7 4 l-0.3 3.3 -3.2 -3.9z"/>
  <path d="M52 14.5 c0 -11.8 0.1 -12.5 2 -12.5 1.9 0 2 0.7 2 12.5 0 11.8 -0.1 12.5 -2 12.5 -1.9 0 -2 -0.7 -2 -12.5z"/>
  <path d="M90 22.5 c0 -2.3 0.5 -3.5 1.4 -3.5 1.8 0 2.6 3.2 1.4 5.4 -1.5 2.7 -2.8 1.8 -2.8 -1.9z"/>
  <path d="M19.7 20 c-0.7 -2.8 0.3 -6 1.9 -6 1 0 1.4 1.3 1.4 4 0 4.3 -2.3 5.7 -3.3 2z"/>
  <path d="M58.3 18 c0 -2.5 0.2 -3.5 0.4 -2.2 0.2 1.2 0.2 3.2 0 4.5 -0.2 1.2 -0.4 0.2 -0.4 -2.3z"/>
  <path d="M73 16.5 c0 -3 2.5 -3.4 3.3 -0.6 0.5 2.2 0 3.1 -2 3.1 -0.7 0 -1.3 -1.1 -1.3 -2.5z"/>
  <path d="M78.4 16.9 c-0.9 -1.5 1 -7 2.7 -7.9 2.9 -1.6 4.9 -1.2 4.9 1 0 1.1 -0.7 2 -1.5 2 -2 0 -1.9 2.7 0.1 3.8 1.3 0.7 0.9 1 -2 1.4 -2.1 0.2 -3.9 0.1 -4.2 -0.3z"/>
 </g>
 <g fill="#737373">
  <path d="M24.1 26.7 c-1.4 -0.6 -2.7 -1.8 -2.9 -2.6 -0.4 -1.1 0.4 -1.3 4.2 -0.8 3.8 0.6 5 0.3 6.6 -1.3 1.1 -1.1 2 -2.7 2 -3.5 0 -0.8 0.7 -1.5 1.5 -1.5 1.1 0 1.5 1.2 1.5 5 0 3.6 -0.4 5 -1.4 5 -0.8 0 -1.6 -0.5 -1.8 -1.2 -0.3 -0.8 -1.1 -0.7 -2.8 0.5 -2.9 2 -3.7 2.1 -6.9 0.4z"/>
  <path d="M64.8 27.3 c-1 -0.2 -1.8 -1.1 -1.8 -1.9 0 -1 1.3 -1.4 4.5 -1.4 3.2 0 4.5 0.4 4.5 1.4 0 1.1 -3.3 2.8 -5 2.5 -0.3 -0.1 -1.3 -0.3 -2.2 -0.6z"/>
  <path d="M83.8 27.3 c-1 -0.2 -1.8 -1.1 -1.8 -1.9 0 -1 1.3 -1.4 4.5 -1.4 3.2 0 4.5 0.4 4.5 1.4 0 1.1 -3.3 2.8 -5 2.5 -0.3 -0.1 -1.3 -0.3 -2.2 -0.6z"/>
  <path d="M50 14.5 c0 -11.8 0.1 -12.5 2 -12.5 1.9 0 2 0.7 2 12.5 0 11.8 -0.1 12.5 -2 12.5 -1.9 0 -2 -0.7 -2 -12.5z"/>
  <path d="M13 22.4 c0 -3.9 0.9 -3.8 4 0.6 l2.1 3 -3 0 c-2.9 0 -3.1 -0.3 -3.1 -3.6z"/>
  <path d="M5 19.5 c0 -3.3 0.2 -3.5 3.6 -3.5 2.8 0 3.5 -0.4 3.3 -1.7 -0.3 -2.8 1.1 -5.3 3.1 -5.3 3 0 3 2.6 0 6.1 -1.6 1.9 -3 4.5 -3 5.9 -0.1 2.3 -0.2 2.4 -1.4 0.8 -1.6 -2.2 -2.6 -2.3 -2.6 -0.3 0 0.8 -0.7 1.5 -1.5 1.5 -1 0 -1.5 -1.1 -1.5 -3.5z"/>
  <path d="M61 20.1 c0 -1 0.3 -3.9 0.6 -6.5 0.6 -4.4 0.8 -4.6 4 -4.6 4.3 0 4.5 2.2 0.4 3.7 -4.5 1.7 -3.9 4.3 0.9 4.3 4 0 4 0 4.3 -4.2 l0.3 -4.3 2.3 2.3 c1.5 1.5 2.2 3.3 2.1 5.5 -0.1 2.3 -0.3 2.6 -0.6 1 -0.5 -2.8 -2.3 -3 -2.3 -0.3 0 1.7 -0.7 2 -5 2 -3.8 0 -5 0.4 -5 1.5 0 0.8 -0.4 1.5 -1 1.5 -0.5 0 -1 -0.8 -1 -1.9z"/>
  <path d="M84.1 19.4 c-5.6 -1.7 -6.5 -2.6 -5.7 -5.8 0.5 -2.2 1.2 -2.6 4.4 -2.5 3.3 0 3.5 0.1 1.3 1 -1.9 0.7 -2.1 1.2 -1.1 2.3 0.6 0.8 2.5 1.8 4.1 2.1 2.7 0.6 3.9 2.8 2.2 3.8 -0.5 0.2 -2.8 -0.2 -5.2 -0.9z"/>
  <path d="M88.8 11.5 c0.4 -2.5 0.5 -2.5 2.3 -0.9 2.5 2.3 2.4 3.4 -0.5 3.4 -2 0 -2.2 -0.4 -1.8 -2.5z"/>
  <path d="M28 10.5 c0 -1.9 0.4 -2.3 1.8 -1.8 0.9 0.4 2 1.1 2.5 1.7 0.5 0.7 1 0.6 1.7 -0.4 0.8 -1.2 1 -1.1 1 0.8 0 1.9 -0.5 2.2 -3.5 2.2 -3.1 0 -3.5 -0.3 -3.5 -2.5z"/>
 </g>
 <g fill="#6b6b6b">
  <path d="M84 27.2 c-2.6 -0.4 -6 -2.9 -6 -4.4 0 -1.2 3.7 -1 5.9 0.4 2.1 1.3 5.4 0.4 4.9 -1.5 -0.2 -0.6 -2.5 -1.8 -5.1 -2.6 -4.9 -1.5 -6.7 -4.1 -5.3 -7.6 1.5 -4 10.3 -4.1 13.1 -0.2 1.4 2 1.4 2.2 -0.1 2.5 -0.9 0.2 -2.7 -0.2 -4 -0.8 -2.5 -1.4 -5.8 -0.6 -5.2 1.2 0.2 0.6 2.6 1.9 5.4 2.7 4.2 1.4 4.9 2 5.2 4.4 0.6 4.6 -2.6 6.8 -8.8 5.9z"/>
  <path d="M3 14.5 l0 -12.5 2.5 0 c2.4 0 2.5 0.2 2.5 7.3 l0.1 7.2 3 -3.7 c2.4 -2.9 3.8 -3.8 6.2 -3.8 l3.1 0 -2.5 2.8 c-5.5 6 -5.5 5.8 -1.5 10.7 l3.7 4.5 -3 0 c-2.5 0 -3.6 -0.8 -5.8 -4.2 l-2.8 -4.2 -0.3 4.2 c-0.3 3.7 -0.6 4.2 -2.8 4.2 l-2.4 0 0 -12.5z"/>
  <path d="M22 25 c-2.4 -2.4 -2.8 -10.5 -0.5 -13.7 2.1 -3 6.2 -3.8 9.3 -1.7 1.8 1.2 2.7 1.3 3 0.6 0.2 -0.7 1.5 -1.2 2.8 -1.2 2.4 0 2.4 0.1 2.4 9 0 8.9 0 9 -2.5 9 -1.7 0 -2.5 -0.6 -2.5 -1.7 0 -1.5 -0.1 -1.5 -1.8 0 -2.5 2.3 -7.8 2.1 -10.2 -0.3z m10.8 -3.2 c1.5 -1.5 1.5 -6.1 0 -7.6 -1.5 -1.5 -5.1 -1.5 -6.6 0 -0.7 0.7 -1.2 2.4 -1.2 3.8 0 3.1 1.7 5 4.5 5 1.2 0 2.6 -0.5 3.3 -1.2z"/>
  <path d="M42 14.5 l0 -12.5 2.5 0 2.5 0 0 12.5 0 12.5 -2.5 0 -2.5 0 0 -12.5z"/>
  <path d="M50.5 14.5 c0 -12.3 0 -12.5 2.3 -12.5 2.2 0 2.2 0.2 2.2 12.5 0 12.3 0 12.5 -2.2 12.5 -2.3 0 -2.3 -0.2 -2.3 -12.5z"/>
  <path d="M60.1 24.4 c-2.7 -3.5 -2.7 -9.3 -0.1 -12.7 5 -6.3 15.9 -3.2 16 4.6 l0 2.9 -6 -0.7 c-5.2 -0.6 -6.1 -0.5 -6.7 1 -0.4 1.2 0 2.3 1.2 3.1 2.4 1.8 3 1.7 4.9 -0.1 1.5 -1.6 6.6 -2.1 6.6 -0.7 0 0.5 -1 1.8 -2.3 3 -3.5 3.3 -10.9 3.1 -13.6 -0.4z m10.7 -9 c-0.5 -2.6 -3.5 -4.1 -5.5 -2.8 -1 0.6 -1.9 1.9 -2.1 2.8 -0.3 1.3 0.5 1.6 3.8 1.6 3.3 0 4.1 -0.3 3.8 -1.6z"/>
 </g>
 <g fill="#636363">
  <path d="M89.3 13.3 c2.2 -0.6 2.2 -1.9 0 -3.3 -1 -0.6 -1.2 -1 -0.4 -0.8 0.8 0.2 2.1 1.4 2.9 2.6 1.4 2.1 1.3 2.2 -1.4 2.1 -1.7 -0.1 -2.2 -0.3 -1.1 -0.6z"/>
 </g>
 <g fill="#5a5a5a">
 </g>
 <g fill="#525252">
 </g>
 <g fill="#4a4a4a">
 </g>
 <g fill="#424242">
 </g>
 <g fill="#3a3a3a">
 </g>
 <g fill="#313131">
 </g>
 <g fill="#292929">
 </g>
 <g fill="#212121">
 </g>
 <g fill="#191919">
 </g>
 <g fill="#101010">
 </g>
 <g fill="#080808">
 </g>
 <g fill="#000000">
 </g>
</svg>